<?xml version="1.0" encoding="UTF-8" standalone="no"?><svg xmlns="http://www.w3.org/2000/svg" xmlns:xlink="http://www.w3.org/1999/xlink" contentScriptType="application/ecmascript" contentStyleType="text/css" height="82px" preserveAspectRatio="none" style="width:354px;height:82px;" version="1.1" viewBox="0 0 354 82" width="354px" zoomAndPan="magnify"><defs/><g><text fill="#000000" font-family="Serif" font-size="10" lengthAdjust="spacingAndGlyphs" textLength="5" x="5.5" y="10.4785">1</text><line style="stroke: #C0C0C0; stroke-width: 1.0;" x1="0" x2="0" y1="0" y2="80"/><text fill="#000000" font-family="Serif" font-size="10" lengthAdjust="spacingAndGlyphs" textLength="5" x="21.5" y="10.4785">2</text><line style="stroke: #C0C0C0; stroke-width: 1.0;" x1="16" x2="16" y1="0" y2="80"/><text fill="#000000" font-family="Serif" font-size="10" lengthAdjust="spacingAndGlyphs" textLength="5" x="37.5" y="10.4785">3</text><line style="stroke: #C0C0C0; stroke-width: 1.0;" x1="32" x2="32" y1="0" y2="80"/><text fill="#000000" font-family="Serif" font-size="10" lengthAdjust="spacingAndGlyphs" textLength="5" x="53.5" y="10.4785">4</text><line style="stroke: #C0C0C0; stroke-width: 1.0;" x1="48" x2="48" y1="0" y2="80"/><text fill="#000000" font-family="Serif" font-size="10" lengthAdjust="spacingAndGlyphs" textLength="5" x="69.5" y="10.4785">5</text><line style="stroke: #C0C0C0; stroke-width: 1.0;" x1="64" x2="64" y1="0" y2="80"/><text fill="#000000" font-family="Serif" font-size="10" lengthAdjust="spacingAndGlyphs" textLength="5" x="85.5" y="10.4785">6</text><line style="stroke: #C0C0C0; stroke-width: 1.0;" x1="80" x2="80" y1="0" y2="80"/><text fill="#000000" font-family="Serif" font-size="10" lengthAdjust="spacingAndGlyphs" textLength="5" x="101.5" y="10.4785">7</text><line style="stroke: #C0C0C0; stroke-width: 1.0;" x1="96" x2="96" y1="0" y2="80"/><text fill="#000000" font-family="Serif" font-size="10" lengthAdjust="spacingAndGlyphs" textLength="5" x="117.5" y="10.4785">8</text><line style="stroke: #C0C0C0; stroke-width: 1.0;" x1="112" x2="112" y1="0" y2="80"/><text fill="#000000" font-family="Serif" font-size="10" lengthAdjust="spacingAndGlyphs" textLength="5" x="133.5" y="10.4785">9</text><line style="stroke: #C0C0C0; stroke-width: 1.0;" x1="128" x2="128" y1="0" y2="80"/><text fill="#000000" font-family="Serif" font-size="10" lengthAdjust="spacingAndGlyphs" textLength="10" x="147" y="10.4785">10</text><line style="stroke: #C0C0C0; stroke-width: 1.0;" x1="144" x2="144" y1="0" y2="80"/><text fill="#000000" font-family="Serif" font-size="10" lengthAdjust="spacingAndGlyphs" textLength="10" x="163" y="10.4785">11</text><line style="stroke: #C0C0C0; stroke-width: 1.0;" x1="160" x2="160" y1="0" y2="80"/><text fill="#000000" font-family="Serif" font-size="10" lengthAdjust="spacingAndGlyphs" textLength="10" x="179" y="10.4785">12</text><line style="stroke: #C0C0C0; stroke-width: 1.0;" x1="176" x2="176" y1="0" y2="80"/><text fill="#000000" font-family="Serif" font-size="10" lengthAdjust="spacingAndGlyphs" textLength="10" x="195" y="10.4785">13</text><line style="stroke: #C0C0C0; stroke-width: 1.0;" x1="192" x2="192" y1="0" y2="80"/><text fill="#000000" font-family="Serif" font-size="10" lengthAdjust="spacingAndGlyphs" textLength="10" x="211" y="10.4785">14</text><line style="stroke: #C0C0C0; stroke-width: 1.0;" x1="208" x2="208" y1="0" y2="80"/><text fill="#000000" font-family="Serif" font-size="10" lengthAdjust="spacingAndGlyphs" textLength="10" x="227" y="10.4785">15</text><line style="stroke: #C0C0C0; stroke-width: 1.0;" x1="224" x2="224" y1="0" y2="80"/><text fill="#000000" font-family="Serif" font-size="10" lengthAdjust="spacingAndGlyphs" textLength="10" x="243" y="10.4785">16</text><line style="stroke: #C0C0C0; stroke-width: 1.0;" x1="240" x2="240" y1="0" y2="80"/><text fill="#000000" font-family="Serif" font-size="10" lengthAdjust="spacingAndGlyphs" textLength="10" x="259" y="10.4785">17</text><line style="stroke: #C0C0C0; stroke-width: 1.0;" x1="256" x2="256" y1="0" y2="80"/><text fill="#000000" font-family="Serif" font-size="10" lengthAdjust="spacingAndGlyphs" textLength="10" x="275" y="10.4785">18</text><line style="stroke: #C0C0C0; stroke-width: 1.0;" x1="272" x2="272" y1="0" y2="80"/><text fill="#000000" font-family="Serif" font-size="10" lengthAdjust="spacingAndGlyphs" textLength="10" x="291" y="10.4785">19</text><line style="stroke: #C0C0C0; stroke-width: 1.0;" x1="288" x2="288" y1="0" y2="80"/><text fill="#000000" font-family="Serif" font-size="10" lengthAdjust="spacingAndGlyphs" textLength="10" x="307" y="10.4785">20</text><line style="stroke: #C0C0C0; stroke-width: 1.0;" x1="304" x2="304" y1="0" y2="80"/><text fill="#000000" font-family="Serif" font-size="10" lengthAdjust="spacingAndGlyphs" textLength="10" x="323" y="10.4785">21</text><line style="stroke: #C0C0C0; stroke-width: 1.0;" x1="320" x2="320" y1="0" y2="80"/><text fill="#000000" font-family="Serif" font-size="10" lengthAdjust="spacingAndGlyphs" textLength="10" x="339" y="10.4785">22</text><line style="stroke: #C0C0C0; stroke-width: 1.0;" x1="336" x2="336" y1="0" y2="80"/><line style="stroke: #C0C0C0; stroke-width: 1.0;" x1="352" x2="352" y1="0" y2="80"/><line style="stroke: #C0C0C0; stroke-width: 1.0;" x1="0" x2="352" y1="0" y2="0"/><line style="stroke: #C0C0C0; stroke-width: 1.0;" x1="0" x2="352" y1="13" y2="13"/><line style="stroke: #CD0A0A; stroke-width: 1.5;" x1="152" x2="152" y1="32" y2="56"/><line style="stroke: #CD0A0A; stroke-width: 1.5;" x1="152" x2="160" y1="56" y2="56"/><polygon fill="#CD0A0A" points="156,52,156,56,156,60,160,56" style="stroke: #CD0A0A; stroke-width: 1.5;"/><line style="stroke: #CD0A0A; stroke-width: 1.5;" x1="152" x2="152" y1="48" y2="72"/><line style="stroke: #CD0A0A; stroke-width: 1.5;" x1="152" x2="160" y1="72" y2="72"/><polygon fill="#CD0A0A" points="156,68,156,72,156,76,160,72" style="stroke: #CD0A0A; stroke-width: 1.5;"/><rect fill="#ADFF2F" height="12" rx="4" ry="4" style="stroke: #0000FF; stroke-width: 1.0;" width="156" x="2" y="18"/><polygon fill="#000000" points="152,34,158,40,152,46,146,40" style="stroke: #000000; stroke-width: 1.0;"/><rect fill="#ADFF2F" height="12" rx="4" ry="4" style="stroke: #0000FF; stroke-width: 1.0;" width="188" x="162" y="50"/><rect fill="#ADFF2F" height="12" rx="4" ry="4" style="stroke: #0000FF; stroke-width: 1.0;" width="44" x="162" y="66"/><text fill="#000000" font-family="Serif" font-size="11" lengthAdjust="spacingAndGlyphs" textLength="71" x="16" y="27.5547">Test prototype</text><text fill="#000000" font-family="Serif" font-size="11" lengthAdjust="spacingAndGlyphs" textLength="99" x="160" y="43.5547">Prototype completed</text><text fill="#000000" font-family="Serif" font-size="11" lengthAdjust="spacingAndGlyphs" textLength="89" x="176" y="59.5547">Setup assembly line</text><text fill="#000000" font-family="Serif" font-size="11" lengthAdjust="spacingAndGlyphs" textLength="80" x="176" y="75.5547">Test prototype 2</text><!--MD5=[d41d8cd98f00b204e9800998ecf8427e]
--></g></svg>